<svg width="66" height="66" viewBox="0 0 66 66" fill="none" xmlns="http://www.w3.org/2000/svg">
<g filter="url(#filter0_dd)">
<path d="M33.9261 34.9585C34.6209 34.9585 35.104 34.2674 34.8652 33.6149L33.4094 29.6362C33.3135 29.4002 33.2139 29.1199 33.1106 28.7953C33.0204 28.5116 32.5905 28.5221 32.5021 28.8064C32.3988 29.1309 32.2992 29.4149 32.2033 29.6584L30.7577 33.6153C30.5193 34.2678 31.0023 34.9585 31.6969 34.9585H33.9261ZM40.0763 39.6344C40.334 40.2904 39.8503 41 39.1455 41H38.3112C38.053 41 37.8428 40.9373 37.6805 40.8119C37.5182 40.6791 37.3965 40.5168 37.3154 40.325L36.3606 37.7171C36.2163 37.3229 35.8412 37.0609 35.4215 37.0609H30.1912C29.7715 37.0609 29.3964 37.3229 29.2522 37.7171L28.2974 40.325C28.2384 40.4947 28.124 40.6496 27.9544 40.7898C27.7847 40.9299 27.5745 41 27.3237 41H26.4681C25.7631 41 25.2794 40.2899 25.5376 39.6338L31.0466 25.6338C31.1971 25.2514 31.5662 25 31.9771 25H33.6462C34.0574 25 34.4267 25.2517 34.577 25.6344L40.0763 39.6344Z" fill="white"/>
</g>
<defs>
<filter id="filter0_dd" x="0.467163" y="0" width="64.6793" height="66" filterUnits="userSpaceOnUse" color-interpolation-filters="sRGB">
<feFlood flood-opacity="0" result="BackgroundImageFix"/>
<feColorMatrix in="SourceAlpha" type="matrix" values="0 0 0 0 0 0 0 0 0 0 0 0 0 0 0 0 0 0 127 0"/>
<feOffset/>
<feGaussianBlur stdDeviation="12.5"/>
<feColorMatrix type="matrix" values="0 0 0 0 0.14902 0 0 0 0 0.670588 0 0 0 0 0.968627 0 0 0 0.2 0"/>
<feBlend mode="normal" in2="BackgroundImageFix" result="effect1_dropShadow"/>
<feColorMatrix in="SourceAlpha" type="matrix" values="0 0 0 0 0 0 0 0 0 0 0 0 0 0 0 0 0 0 127 0"/>
<feOffset/>
<feGaussianBlur stdDeviation="5"/>
<feColorMatrix type="matrix" values="0 0 0 0 0.3875 0 0 0 0 0.811538 0 0 0 0 1 0 0 0 0.5 0"/>
<feBlend mode="normal" in2="effect1_dropShadow" result="effect2_dropShadow"/>
<feBlend mode="normal" in="SourceGraphic" in2="effect2_dropShadow" result="shape"/>
</filter>
</defs>
</svg>
