<svg width="300" height="91" viewBox="0 0 300 91" fill="none" xmlns="http://www.w3.org/2000/svg">
<g filter="url(#filter0_dif)">
<path d="M40.6924 46.9665L42.5488 41.3971L83.8552 48.3588L238.87 46.9665L259.291 40.4688V46.9665L239.334 48.3588L83.3911 50.6794L40.6924 46.9665Z" fill="#41BBFF"/>
</g>
<g filter="url(#filter1_dif)">
<path d="M40.6924 46.9665L42.5488 41.3971L83.8552 48.3588L238.87 46.9665L259.291 40.4688V46.9665L239.334 48.3588L83.3911 50.6794L40.6924 46.9665Z" fill="#41BBFF"/>
</g>
<g opacity="0.8">
<mask id="mask0" mask-type="alpha" maskUnits="userSpaceOnUse" x="40" y="40" width="220" height="11">
<path d="M40.6921 46.9669L42.5485 41.3975L83.8549 48.3592L238.87 46.9669L259.291 40.4693V46.9669L239.334 48.3592L83.3908 50.6798L40.6921 46.9669Z" fill="white"/>
</mask>
<g mask="url(#mask0)">
<path d="M43.9409 46.5028V41.8616L83.8549 48.3592L238.87 46.9669L258.363 41.3975V45.5745L239.334 48.3592L83.3908 50.6798L43.9409 46.5028Z" fill="white"/>
</g>
</g>
<defs>
<filter id="filter0_dif" x="0.692383" y="0.468842" width="298.599" height="90.2106" filterUnits="userSpaceOnUse" color-interpolation-filters="sRGB">
<feFlood flood-opacity="0" result="BackgroundImageFix"/>
<feColorMatrix in="SourceAlpha" type="matrix" values="0 0 0 0 0 0 0 0 0 0 0 0 0 0 0 0 0 0 127 0"/>
<feOffset/>
<feGaussianBlur stdDeviation="7.5"/>
<feColorMatrix type="matrix" values="0 0 0 0 0.254902 0 0 0 0 0.733333 0 0 0 0 1 0 0 0 1 0"/>
<feBlend mode="normal" in2="BackgroundImageFix" result="effect1_dropShadow"/>
<feBlend mode="normal" in="SourceGraphic" in2="effect1_dropShadow" result="shape"/>
<feColorMatrix in="SourceAlpha" type="matrix" values="0 0 0 0 0 0 0 0 0 0 0 0 0 0 0 0 0 0 127 0" result="hardAlpha"/>
<feOffset/>
<feGaussianBlur stdDeviation="10"/>
<feComposite in2="hardAlpha" operator="arithmetic" k2="-1" k3="1"/>
<feColorMatrix type="matrix" values="0 0 0 0 0.254902 0 0 0 0 0.733333 0 0 0 0 1 0 0 0 1 0"/>
<feBlend mode="normal" in2="shape" result="effect2_innerShadow"/>
<feGaussianBlur stdDeviation="20" result="effect3_foregroundBlur"/>
</filter>
<filter id="filter1_dif" x="0.692383" y="0.468842" width="298.599" height="90.2106" filterUnits="userSpaceOnUse" color-interpolation-filters="sRGB">
<feFlood flood-opacity="0" result="BackgroundImageFix"/>
<feColorMatrix in="SourceAlpha" type="matrix" values="0 0 0 0 0 0 0 0 0 0 0 0 0 0 0 0 0 0 127 0"/>
<feOffset/>
<feGaussianBlur stdDeviation="7.5"/>
<feColorMatrix type="matrix" values="0 0 0 0 0.254902 0 0 0 0 0.733333 0 0 0 0 1 0 0 0 1 0"/>
<feBlend mode="normal" in2="BackgroundImageFix" result="effect1_dropShadow"/>
<feBlend mode="normal" in="SourceGraphic" in2="effect1_dropShadow" result="shape"/>
<feColorMatrix in="SourceAlpha" type="matrix" values="0 0 0 0 0 0 0 0 0 0 0 0 0 0 0 0 0 0 127 0" result="hardAlpha"/>
<feOffset/>
<feGaussianBlur stdDeviation="10"/>
<feComposite in2="hardAlpha" operator="arithmetic" k2="-1" k3="1"/>
<feColorMatrix type="matrix" values="0 0 0 0 0.254902 0 0 0 0 0.733333 0 0 0 0 1 0 0 0 1 0"/>
<feBlend mode="normal" in2="shape" result="effect2_innerShadow"/>
<feGaussianBlur stdDeviation="20" result="effect3_foregroundBlur"/>
</filter>
</defs>
</svg>
